HIERARCHY
ROOT hip
{
	OFFSET 0.00000 0.00000 0.00000
	CHANNELS 6 Xposition Yposition Zposition Zrotation Yrotation Xrotation 
	JOINT lhipjoint
	{
		OFFSET 0 0 0
		CHANNELS 3 Zrotation Yrotation Xrotation
		JOINT lfemur
		{
			OFFSET 1.57314 -1.85774 0.63783
			CHANNELS 3 Zrotation Yrotation Xrotation
			JOINT ltibia
			{
				OFFSET 2.57982 -7.08799 0.00000
				CHANNELS 3 Zrotation Yrotation Xrotation
				JOINT lfoot
				{
					OFFSET 2.63993 -7.25315 0.00000
					CHANNELS 3 Zrotation Yrotation Xrotation
					JOINT ltoes
					{
						OFFSET 0.16864 -0.46332 2.12791
						CHANNELS 3 Zrotation Yrotation Xrotation
						End Site
						{
							OFFSET 0.00000 -0.00000 1.09718
						}
					}
				}
			}
		}
	}
	JOINT rhipjoint
	{
		OFFSET 0 0 0
		CHANNELS 3 Zrotation Yrotation Xrotation
		JOINT rfemur
		{
			OFFSET -1.56006 -1.85774 0.63784
			CHANNELS 3 Zrotation Yrotation Xrotation
			JOINT rtibia
			{
				OFFSET -2.54246 -6.98536 0.00000
				CHANNELS 3 Zrotation Yrotation Xrotation
				JOINT rfoot
				{
					OFFSET -2.65791 -7.30256 0.00000
					CHANNELS 3 Zrotation Yrotation Xrotation
					JOINT rtoes
					{
						OFFSET -0.18435 -0.50650 2.16316
						CHANNELS 3 Zrotation Yrotation Xrotation
						End Site
						{
							OFFSET -0.00000 -0.00000 1.11780
						}
					}
				}
			}
		}
	}
	JOINT lowerback
	{
		OFFSET 0 0 0
		CHANNELS 3 Zrotation Yrotation Xrotation
		JOINT upperback
		{
			OFFSET -0.00136 1.92812 -0.29638
			CHANNELS 3 Zrotation Yrotation Xrotation
			JOINT thorax
			{
				OFFSET -0.00528 1.96223 -0.02928
				CHANNELS 3 Zrotation Yrotation Xrotation
				JOINT lowerneck
				{
					OFFSET 0 0 0
					CHANNELS 3 Zrotation Yrotation Xrotation
					JOINT upperneck
					{
						OFFSET -0.01015 1.75586 0.07797
						CHANNELS 3 Zrotation Yrotation Xrotation
						JOINT head
						{
							OFFSET 0.05540 1.72452 0.04558
							CHANNELS 3 Zrotation Yrotation Xrotation
							End Site
							{
								OFFSET 0.02170 1.79958 0.00864
							}
						}
					}
				}
				JOINT lclavicle
				{
					OFFSET 0 0 0
					CHANNELS 3 Zrotation Yrotation Xrotation
					JOINT lhumerus
					{
						OFFSET 3.16292 1.29277 -0.65728
						CHANNELS 3 Zrotation Yrotation Xrotation
						JOINT lradius
						{
							OFFSET 5.52302 -0.00000 -0.00000
							CHANNELS 3 Zrotation Yrotation Xrotation
							JOINT lwrist
							{
								OFFSET 3.58675 -0.00000 -0.00000
								CHANNELS 3 Zrotation Yrotation Xrotation
								JOINT lhand
								{
									OFFSET 0 0 0
									CHANNELS 3 Zrotation Yrotation Xrotation
									JOINT lfingers
									{
										OFFSET 0.53641 -0.00000 -0.00000
										CHANNELS 3 Zrotation Yrotation Xrotation
										End Site
										{
											OFFSET 0.43247 -0.00000 -0.00000
										}
									}
								}
								JOINT lthumb
								{
									OFFSET 0 0 0
									CHANNELS 3 Zrotation Yrotation Xrotation
									End Site
									{
										OFFSET 0.43907 -0.00000 0.43907
									}
								}
							}
						}
					}
				}
				JOINT rclavicle
				{
					OFFSET 0 0 0
					CHANNELS 3 Zrotation Yrotation Xrotation
					JOINT rhumerus
					{
						OFFSET -3.08296 1.43376 -0.52927
						CHANNELS 3 Zrotation Yrotation Xrotation
						JOINT rradius
						{
							OFFSET -5.84780 -0.00000 0.00000
							CHANNELS 3 Zrotation Yrotation Xrotation
							JOINT rwrist
							{
								OFFSET -3.62717 -0.00000 -0.00000
								CHANNELS 3 Zrotation Yrotation Xrotation
								JOINT rhand
								{
									OFFSET 0 0 0
									CHANNELS 3 Zrotation Yrotation Xrotation
									JOINT rfingers
									{
										OFFSET -0.65052 -0.00000 -0.00000
										CHANNELS 3 Zrotation Yrotation Xrotation
										End Site
										{
											OFFSET -0.52446 -0.00000 -0.00000
										}
									}
								}
								JOINT rthumb
								{
									OFFSET 0 0 0
									CHANNELS 3 Zrotation Yrotation Xrotation
									End Site
									{
										OFFSET -0.53247 -0.00000 0.53247
									}
								}
							}
						}
					}
				}
			}
		}
	}
}
MOTION
Frames: 6
Frame Time: 0.033333
7.9227 17.7422 -2.2579 -180.4668 67.8755 -182.9067 -0.0000 -0.0000 -0.0000 -11.8115 -7.4351 -12.0910 0.6168 4.5592 12.6382 -0.8961 16.0600 4.7262 0.1089 2.3385 6.6628 -0.0000 -0.0000 -0.0000 20.8095 21.4607 5.3272 -6.5272 -14.3967 46.1763 -0.1455 12.5201 -1.9940 -0.5467 -1.4710 4.1664 0.8738 -7.0277 7.1075 2.8165 -9.0314 2.5378 3.0994 -4.4718 -0.7781 4.7232 -16.6273 0.0946 -5.0505 -21.3103 33.4698 -3.8040 -9.2693 9.8474 -0.0000 0.0000 -0.0000 -79.4428 -2.2751 28.8563 12.1990 -19.7817 -2.4279 -0.0000 -0.0000 -13.2935 35.7017 12.4584 9.0756 -7.0774 0.0000 -0.0000 8.1505 44.1542 -0.6253 0.0000 0.0000 0.0000 82.5257 -10.0769 -6.5436 -11.3226 18.7313 -1.9496 0.0000 0.0000 16.8528 -20.5616 14.9680 -5.4970 7.0774 0.0000 0.0000 4.6192 -13.8844 3.4516
8.0802 17.9782 -2.2095 -180.3925 68.3918 -182.6902 -0.0000 -0.0000 -0.0000 -11.0081 -8.0921 -12.1081 0.7039 4.6592 13.0203 -0.9432 16.7203 5.2982 0.1374 2.2406 6.3885 -0.0000 -0.0000 -0.0000 21.3571 21.9294 6.2146 -6.1507 -14.0612 44.7398 -0.0918 12.9802 -3.5978 -0.5783 -1.6405 4.6514 1.2990 -6.9450 7.2118 3.0189 -8.8799 2.5305 3.0716 -4.3954 -0.8962 4.8226 -16.5397 0.3936 -5.2447 -21.0986 33.4116 -3.8276 -9.1848 9.7530 -0.0000 0.0000 -0.0000 -80.5485 -1.7738 28.7389 12.4478 -20.1841 -2.4814 -0.0000 -0.0000 -13.0831 35.6212 12.5888 8.7816 -7.1697 0.0000 -0.0000 7.3235 44.4478 -0.9643 0.0000 0.0000 0.0000 83.6105 -9.9689 -6.4010 -11.2697 18.6742 -1.9081 0.0000 0.0000 17.0356 -21.0337 15.0458 -5.5952 7.1697 0.0000 0.0000 4.5411 -14.1659 3.3770
7.8294 17.8328 -2.1357 -180.0088 68.8691 -182.1805 -0.0000 -0.0000 -0.0000 -10.5417 -8.0481 -12.2315 0.7718 4.7073 13.2415 -0.9698 17.3032 4.3955 0.1380 2.2220 6.3338 -0.0000 -0.0000 -0.0000 21.1425 21.7867 6.1572 -5.8789 -13.7135 43.4340 -0.0494 12.2516 -4.8233 -0.5856 -1.7300 4.9088 1.3823 -6.9182 7.2078 3.0760 -8.8349 2.5371 3.0872 -4.3734 -0.8976 4.8204 -16.6317 0.3050 -5.2750 -21.2656 33.4851 -3.8692 -9.2545 9.7974 -0.0000 0.0000 -0.0000 -79.9460 -1.5876 28.4666 12.2685 -19.9087 -2.4342 -0.0000 -0.0000 -13.0095 35.0394 12.5296 8.5294 -7.1113 0.0000 -0.0000 6.7575 44.0087 -1.0998 0.0000 0.0000 0.0000 82.8687 -9.8773 -6.3904 -11.2129 18.5676 -1.9081 0.0000 0.0000 16.8453 -20.8463 14.9551 -5.5589 7.1113 0.0000 0.0000 4.5174 -14.0181 3.3604
8.0089 17.7803 -1.9915 -178.0979 68.9921 -180.1126 -0.0000 -0.0000 -0.0000 -9.9273 -8.4029 -12.3516 0.7038 4.5075 12.6475 -0.9918 18.2039 3.5729 0.1387 2.0900 5.9712 -0.0000 -0.0000 -0.0000 20.8972 22.0177 6.4005 -5.5994 -13.3686 42.1259 -0.0293 11.5954 -6.8698 -0.5653 -1.2890 3.6715 1.6076 -6.7199 7.2702 3.1254 -8.5541 2.5202 3.0114 -4.2313 -1.0017 4.8328 -16.1152 0.2748 -5.3734 -20.5452 33.1806 -3.8542 -8.9192 9.6875 -0.0000 0.0000 -0.0000 -79.7128 -1.3454 28.1076 12.2501 -19.8691 -2.4392 -0.0000 -0.0000 -13.0937 35.0159 12.5828 8.6225 -7.0851 0.0000 -0.0000 6.8525 43.9986 -1.0438 0.0000 0.0000 0.0000 82.6457 -9.8048 -6.1729 -11.0936 18.3731 -1.8787 0.0000 0.0000 16.9576 -20.7535 14.8974 -5.5388 7.0851 0.0000 0.0000 4.5147 -13.9693 3.3531
8.4623 17.8047 -1.7377 -176.5958 68.9482 -178.6272 -0.0000 -0.0000 -0.0000 -9.3893 -8.5652 -12.4082 0.5375 4.1391 11.4868 -0.9902 18.7912 3.0755 0.2164 1.4263 4.0810 -0.0000 -0.0000 -0.0000 20.8668 22.4358 6.9080 -5.3405 -13.0349 40.8910 -0.0630 11.3419 -8.5086 -0.5336 -0.5547 1.6046 1.8469 -6.5421 7.3323 3.1535 -8.2997 2.4836 2.9057 -4.1009 -1.1238 4.8459 -15.3715 0.0873 -5.5456 -19.4777 32.6822 -3.8386 -8.4192 9.5208 -0.0000 0.0000 -0.0000 -79.7689 -1.5481 28.2692 12.5076 -20.2172 -2.5465 -0.0000 -0.0000 -13.7407 35.6501 12.6073 9.0262 -7.0902 0.0000 -0.0000 7.7546 44.2055 -0.7922 0.0000 0.0000 0.0000 82.7987 -9.9168 -6.1274 -11.0162 18.2143 -1.8749 0.0000 0.0000 17.2796 -20.7187 14.9260 -5.5419 7.0902 0.0000 0.0000 4.5570 -13.9629 3.3804
6.7805 18.0511 -2.4353 -187.7550 70.3920 -190.6719 -0.0000 -0.0000 -0.0000 -9.3188 -7.8229 -6.3182 -0.0832 3.5350 8.9337 -1.2411 18.2091 5.8344 0.6793 -0.1130 -0.4835 -0.0000 -0.0000 -0.0000 20.2056 21.4092 6.6813 -5.1235 -12.8745 40.1733 0.2414 10.8461 -3.8690 -0.8749 -6.0238 17.0438 1.0475 -7.0681 7.1166 3.2438 -9.0896 2.3917 3.4895 -4.4869 -1.0782 4.3603 -17.5665 0.5549 -5.2611 -22.4092 32.6984 -3.7963 -9.8315 9.4948 -0.0000 0.0000 -0.0000 -81.2541 0.7794 26.8655 11.1651 -18.2605 -2.0867 -0.0000 -0.0000 -14.0983 33.8180 14.2983 8.3198 -7.2117 0.0000 -0.0000 3.2607 45.5638 -1.2110 0.0000 0.0000 0.0000 83.9980 -10.6613 -7.2480 -10.6643 17.7072 -1.7408 0.0000 0.0000 16.4453 -21.8138 14.8550 -5.7716 7.2117 0.0000 0.0000 4.1345 -14.4624 3.0121
